HIERARCHY
ROOT Hips
{
    OFFSET 0.000000 0.000000 0.000000
    CHANNELS 6 Xposition Yposition Zposition Zrotation Xrotation Yrotation
    JOINT Spine
    {
        OFFSET -0.000000 7.810951 0.000000
        CHANNELS 3 Zrotation Xrotation Yrotation
        JOINT Spine1
        {
            OFFSET -0.000000 18.868288 0.000000
            CHANNELS 3 Zrotation Xrotation Yrotation
            JOINT Neck
            {
                OFFSET -0.000000 18.790800 1.708255
                CHANNELS 3 Zrotation Xrotation Yrotation
                JOINT Head
                {
                    OFFSET -0.000000 13.335769 -1.905110
                    CHANNELS 3 Zrotation Xrotation Yrotation
                    End Site
                    {
                        OFFSET -0.000000 23.813873 0.000000
                    }
                }
            }
            JOINT LeftShoulder
            {
                OFFSET 3.868973 15.461964 -0.252686
                CHANNELS 3 Zrotation Xrotation Yrotation
                JOINT LeftArm
                {
                    OFFSET 15.258958 0.000000 0.000000
                    CHANNELS 3 Zrotation Xrotation Yrotation
                    JOINT LeftForeArm
                    {
                        OFFSET 27.600050 0.000000 0.000000
                        CHANNELS 3 Zrotation Xrotation Yrotation
                        JOINT LeftHand
                        {
                            OFFSET 23.737446 0.000000 0.000000
                            CHANNELS 3 Zrotation Xrotation Yrotation
                            End Site
                            {
                                OFFSET 14.288324 0.000000 0.000000
                            }
                        }
                    }
                }
            }
            JOINT RightShoulder
            {
                OFFSET -3.750262 15.461964 -0.252686
                CHANNELS 3 Zrotation Xrotation Yrotation
                JOINT RightArm
                {
                    OFFSET -15.258958 0.000000 0.000000
                    CHANNELS 3 Zrotation Xrotation Yrotation
                    JOINT RightForeArm
                    {
                        OFFSET -27.600050 0.000000 0.000000
                        CHANNELS 3 Zrotation Xrotation Yrotation
                        JOINT RightHand
                        {
                            OFFSET -23.737446 0.000000 0.000000
                            CHANNELS 3 Zrotation Xrotation Yrotation
                            End Site
                            {
                                OFFSET -14.288324 0.000000 0.000000
                            }
                        }
                    }
                }
            }
        }
    }
    JOINT LeftUpLeg
    {
        OFFSET 9.525549 0.000000 0.000000
        CHANNELS 3 Zrotation Xrotation Yrotation
        JOINT LeftLeg
        {
            OFFSET -0.000000 -45.198063 0.000000
            CHANNELS 3 Zrotation Xrotation Yrotation
            JOINT LeftFoot
            {
                OFFSET -0.000000 -37.850700 0.000000
                CHANNELS 3 Zrotation Xrotation Yrotation
                JOINT LeftToeBase
                {
                    OFFSET -0.000000 -6.191607 14.288324
                    CHANNELS 3 Zrotation Xrotation Yrotation
                    End Site
                    {
                        OFFSET -0.000000 0.000000 3.810220
                    }
                }
            }
        }
    }
    JOINT RightUpLeg
    {
        OFFSET -9.525549 0.000000 0.000000
        CHANNELS 3 Zrotation Xrotation Yrotation
        JOINT RightLeg
        {
            OFFSET -0.000000 -45.198063 0.000000
            CHANNELS 3 Zrotation Xrotation Yrotation
            JOINT RightFoot
            {
                OFFSET -0.000000 -37.850700 0.000000
                CHANNELS 3 Zrotation Xrotation Yrotation
                JOINT RightToeBase
                {
                    OFFSET -0.000000 -6.191607 14.288324
                    CHANNELS 3 Zrotation Xrotation Yrotation
                    End Site
                    {
                        OFFSET -0.000000 0.000000 3.810220
                    }
                }
            }
        }
    }
}
MOTION
Frames:    10
Frame Time:    0.008333
-11.035737    91.627182    16.807308    0.851695    -4.790016    -179.328186    -0.752489    -9.552564    0.235670    0.058902    3.482111    0.296905    5.316317    23.266937    3.272463    -3.329712    -9.490088    3.021260    20.037111    -2.099689    -0.017378    -21.899120    -6.125931    -5.450945    0.600565    -2.550390    7.108958    -3.244406    -2.397795    -6.703209    -16.756001    -2.886786    0.720694    21.824772    -5.495081    -8.996223    -4.051695    -0.608284    1.467329    -0.003709    -0.556325    -3.893324    4.043045    0.849649    -7.721121    -1.621687    -1.139617    -7.408375    -1.490157    0.175763    20.127920    0.000000    0.000000    0.000000    -4.245733    5.003770    7.294916    2.168662    -8.937739    5.672307    0.837632    4.237102    -19.067514    0.000000    0.000000    0.000000    
-11.027807    91.625175    16.804447    0.855430    -4.788311    -179.321075    -0.752970    -9.568799    0.229229    0.055899    3.511190    0.290692    5.310054    23.234039    3.268554    -3.303090    -9.449892    3.022120    20.039133    -2.116342    -0.018163    -21.897991    -6.120355    -5.447001    0.586768    -2.570301    7.106343    -3.249981    -2.415580    -6.735386    -16.748936    -2.921919    0.732793    21.821547    -5.488881    -9.010108    -4.050851    -0.591718    1.473771    -0.003550    -0.539508    -3.894328    4.051210    0.850681    -7.704574    -1.619997    -1.136039    -7.399071    -1.480249    0.169623    20.094643    0.000000    0.000000    0.000000    -4.236706    5.008850    7.294657    2.169962    -8.942902    5.627948    0.814243    4.239386    -19.031254    0.000000    0.000000    0.000000    
-11.024406    91.623917    16.801888    0.854532    -4.788725    -179.324249    -0.753883    -9.569644    0.225951    0.062519    3.506165    0.287251    5.315466    23.216070    3.275012    -3.319940    -9.404276    3.025789    20.029726    -2.129593    -0.023079    -21.907373    -6.090001    -5.433321    0.586768    -2.570301    7.106343    -3.249981    -2.415580    -6.735386    -16.760569    -2.912302    0.746484    21.833279    -5.519435    -9.001120    -4.065100    -0.565961    1.470435    0.026875    -0.514798    -3.878242    4.048401    0.848704    -7.696268    -1.609612    -1.125852    -7.423274    -1.496290    0.152974    20.109982    0.000000    0.000000    0.000000    -4.237242    5.013321    7.333351    2.165352    -8.950963    5.625000    0.823231    4.233825    -19.067045    0.000000    0.000000    0.000000    
-11.018806    91.621056    16.800381    0.854351    -4.789820    -179.320709    -0.767232    -9.574686    0.223103    0.078482    3.515232    0.284922    5.308072    23.185379    3.267322    -3.302855    -9.361329    3.020680    20.026814    -2.138083    -0.026455    -21.921228    -6.093152    -5.436061    0.597595    -2.618005    7.097949    -3.240810    -2.464062    -6.749950    -16.757404    -2.928234    0.747850    21.820566    -5.527751    -8.998614    -4.060110    -0.550523    1.462007    0.030057    -0.499821    -3.871208    4.053534    0.842892    -7.697105    -1.616915    -1.118638    -7.409249    -1.498861    0.140796    20.101395    0.000000    0.000000    0.000000    -4.239247    5.013185    7.316614    2.178515    -8.949387    5.648767    0.803967    4.227151    -19.065027    0.000000    0.000000    0.000000    
-11.015653    91.619530    16.798050    0.851540    -4.788786    -179.317429    -0.757897    -9.581082    0.222648    0.053579    3.529939    0.284455    5.291697    23.144920    3.280559    -3.240779    -9.323513    3.046059    20.044266    -2.141621    -0.023796    -21.941908    -6.080848    -5.444733    0.607664    -2.635896    7.081752    -3.247684    -2.483402    -6.703899    -16.747280    -2.924068    0.743218    21.830011    -5.517030    -8.985583    -4.056416    -0.567879    1.463347    -0.000351    -0.516228    -3.869503    4.051815    0.846105    -7.700881    -1.612713    -1.112662    -7.422988    -1.498630    0.121120    20.109850    0.000000    0.000000    0.000000    -4.244624    5.014003    7.281900    2.198110    -8.939504    5.704707    0.826464    4.191297    -19.110685    0.000000    0.000000    0.000000    
-11.008946    91.617691    16.796818    0.855565    -4.793485    -179.314194    -0.777325    -9.589785    0.224021    0.087240    3.533175    0.286545    5.299936    23.128523    3.276415    -3.251166    -9.293360    3.039989    20.032574    -2.134538    -0.037284    -21.966122    -6.117743    -5.464272    0.621272    -2.625756    7.090342    -3.245364    -2.474250    -6.705182    -16.750498    -2.937509    0.740509    21.822941    -5.479685    -8.994032    -4.042118    -0.582002    1.468552    -0.062168    -0.528163    -3.894279    4.060441    0.841128    -7.701201    -1.611972    -1.114898    -7.439933    -1.494717    0.115071    20.123430    0.000000    0.000000    0.000000    -4.233932    5.015144    7.326959    2.187489    -8.953586    5.610195    0.790918    4.213463    -19.053864    0.000000    0.000000    0.000000    
-11.003846    91.614769    16.797794    0.858049    -4.800097    -179.307877    -0.772770    -9.598724    0.220082    0.083666    3.550504    0.282546    5.279347    23.105068    3.275534    -3.222989    -9.293097    3.042733    20.033598    -2.133190    -0.023241    -21.978735    -6.131224    -5.482172    0.610121    -2.620109    7.071888    -3.222109    -2.470298    -6.664852    -16.757841    -2.933414    0.735592    21.836929    -5.470897    -8.977396    -4.038597    -0.595194    1.466610    -0.090785    -0.540459    -3.901209    4.065192    0.823831    -7.692955    -1.616806    -1.095104    -7.443858    -1.481969    0.107896    20.115648    0.000000    0.000000    0.000000    -4.232799    5.008337    7.320507    2.191650    -8.948435    5.655549    0.806365    4.181548    -19.084963    0.000000    0.000000    0.000000    
-10.998204    91.613579    16.792606    0.857218    -4.794536    -179.304916    -0.778171    -9.597628    0.221688    0.090536    3.552310    0.284306    5.276800    23.081831    3.275415    -3.216224    -9.255405    3.043742    20.021648    -2.123912    -0.032387    -21.978844    -6.148336    -5.504935    0.589034    -2.613236    7.081798    -3.208449    -2.463395    -6.649912    -16.760771    -2.915694    0.724078    21.841175    -5.463916    -8.961590    -4.033904    -0.590549    1.475070    -0.078757    -0.535961    -3.896042    4.064301    0.833905    -7.699080    -1.609007    -1.097091    -7.410486    -1.485138    0.106688    20.083752    0.000000    0.000000    0.000000    -4.232801    5.016765    7.332119    2.199447    -8.942446    5.663051    0.786404    4.174599    -19.103739    0.000000    0.000000    0.000000    
-10.994506    91.612694    16.791052    0.857699    -4.798868    -179.297516    -0.776736    -9.594517    0.219433    0.085004    3.544283    0.282099    5.291525    23.061373    3.262061    -3.223994    -9.224114    3.028895    20.028032    -2.121446    -0.035247    -22.000477    -6.164639    -5.512071    0.597004    -2.608446    7.062148    -3.273279    -2.455898    -6.626498    -16.757061    -2.927163    0.717187    21.845596    -5.462864    -8.956694    -4.042427    -0.560868    1.480777    -0.063854    -0.506477    -3.894999    4.063954    0.822973    -7.700281    -1.602693    -1.081395    -7.413989    -1.476151    0.090343    20.072485    0.000000    0.000000    0.000000    -4.232572    5.009228    7.318473    2.201281    -8.924590    5.768797    0.790820    4.155388    -19.185795    0.000000    0.000000    0.000000    
-10.990662    91.610657    16.791227    0.857894    -4.809355    -179.290649    -0.781545    -9.608162    0.214080    0.094782    3.561441    0.276831    5.245005    23.028656    3.273462    -3.165546    -9.208492    3.049339    20.024103    -2.130098    -0.022898    -22.014450    -6.144626    -5.534715    0.595417    -2.613850    7.073538    -3.325750    -2.458473    -6.618574    -16.760796    -2.930871    0.713139    21.839291    -5.452542    -8.952171    -4.035704    -0.544934    1.499971    -0.043387    -0.490797    -3.883803    4.063968    0.809254    -7.692813    -1.596024    -1.072806    -7.464356    -1.479341    0.067742    20.105591    0.000000    0.000000    0.000000    -4.237895    4.999358    7.342435    2.208616    -8.926018    5.755314    0.789966    4.147486    -19.192873    0.000000    0.000000    0.000000    
